<svg xmlns="http://www.w3.org/2000/svg" x="0px" y="0px"
width="50" height="50"
viewBox="0 0 172 172"
style=" fill:#000000;"><g fill="none" fill-rule="nonzero" stroke="none" stroke-width="1" stroke-linecap="butt" stroke-linejoin="miter" stroke-miterlimit="10" stroke-dasharray="" stroke-dashoffset="0" font-family="none" font-weight="none" font-size="none" text-anchor="none" style="mix-blend-mode: normal"><path d="M0,172v-172h172v172z" fill="none"></path><g fill="#fac42f"><path d="M86,10.32c-3.13728,0 -9.15921,0.65285 -14.10937,4.90469c-0.02098,0.01583 -0.15902,0.13739 -0.18141,0.15453c-1.54723,1.17597 -4.96776,4.18423 -9.83625,8.40516l-0.34265,0.29562h-23.69031c-1.90232,0 -3.44,1.53768 -3.44,3.44v20.51235c-11.83016,10.4576 -21.87383,19.40375 -22.83703,20.26375l29.71703,23.15281v-60.4889h20.59969c0.53634,0.131 1.09632,0.131 1.63266,0h44.89469c0.3934,0.06903 0.79582,0.06903 1.18922,0h21.12375v60.4889l29.71703,-23.15281c-0.96664,-0.86 -11.00687,-9.80615 -22.83703,-20.26375v-20.51235c0,-1.90232 -1.53768,-3.44 -3.44,-3.44h-23.88515c-0.57582,-0.51696 -1.10486,-0.97209 -1.68641,-1.49156c-3.90942,-3.50314 -6.93636,-6.1788 -8.31109,-7.22266c-0.01123,-0.00963 -0.02236,-0.01728 -0.0336,-0.02688c-0.11297,-0.0964 -0.22892,-0.16921 -0.34265,-0.26203c-0.52857,-0.43128 -1.06422,-0.84489 -1.60578,-1.20266c-0.65274,-0.43232 -1.31103,-0.81311 -1.9686,-1.14891l-0.00672,-0.00672h-0.00672c-1.32477,-0.67282 -2.64261,-1.1706 -3.9036,-1.52516c-1.27225,-0.35829 -2.47942,-0.57589 -3.57437,-0.70547c-1.08586,-0.12986 -2.05099,-0.16797 -2.83531,-0.16797zM55.04,48.16c-1.24059,-0.01754 -2.39452,0.63425 -3.01993,1.7058c-0.62541,1.07155 -0.62541,2.39684 0,3.46839c0.62541,1.07155 1.77935,1.72335 3.01993,1.7058h61.92c1.24059,0.01754 2.39452,-0.63425 3.01993,-1.7058c0.62541,-1.07155 0.62541,-2.39684 0,-3.46839c-0.62541,-1.07155 -1.77935,-1.72335 -3.01993,-1.7058zM55.04,65.36c-1.24059,-0.01754 -2.39452,0.63425 -3.01993,1.7058c-0.62541,1.07155 -0.62541,2.39684 0,3.46839c0.62541,1.07155 1.77935,1.72335 3.01993,1.7058h37.84c1.24059,0.01754 2.39452,-0.63425 3.01993,-1.7058c0.62541,-1.07155 0.62541,-2.39684 0,-3.46839c-0.62541,-1.07155 -1.77935,-1.72335 -3.01993,-1.7058zM10.32,76.1436v65.36672c0.2752,-0.20984 0.52761,-0.41484 0.80625,-0.63156c11.95056,-9.29488 28.35555,-22.05325 41.15235,-31.98797zM161.68,76.1436l-42.1736,32.91515c12.54912,9.90376 28.9296,22.81773 42.1736,33.24438zM86,95.7086c-0.86344,0 -5.39118,0.17286 -10.00422,3.5475c-3.16136,2.33576 -40.55384,31.4302 -60.64344,47.05812c-1.89888,1.47576 -3.55314,2.76823 -5.03234,3.91031v8.01547c0,1.90232 1.53768,3.44 3.44,3.44h144.48c1.90232,0 3.44,-1.53768 3.44,-3.44v-7.18235c-24.17976,-19.03008 -63.09992,-49.72858 -65.79,-51.8889c-3.76336,-3.00656 -7.81224,-3.46015 -9.89,-3.46015z"></path></g></g></svg>