<svg xmlns="http://www.w3.org/2000/svg" x="0px" y="0px"
width="24" height="24"
viewBox="0 0 172 172"
style=" fill:#000000;"><g fill="none" fill-rule="nonzero" stroke="none" stroke-width="1" stroke-linecap="butt" stroke-linejoin="miter" stroke-miterlimit="10" stroke-dasharray="" stroke-dashoffset="0" font-family="none" font-weight="none" font-size="none" text-anchor="none" style="mix-blend-mode: normal"><path d="M0,172v-172h172v172z" fill="none"></path><g fill="#fac42f"><path d="M86,7.16667c-23.75033,0 -43,19.24967 -43,43c0,30.71633 43,78.83333 43,78.83333c0,0 43,-48.117 43,-78.83333c0,-23.75033 -19.24967,-43 -43,-43zM86,34.81152c8.48533,0 15.35514,6.86981 15.35514,15.35514c0,8.47817 -6.87698,15.35514 -15.35514,15.35514c-8.47817,0 -15.35514,-6.86981 -15.35514,-15.35514c0,-8.48533 6.86981,-15.35514 15.35514,-15.35514zM34.4056,107.5l-20.07227,50.16667h143.33333l-20.07226,-50.16667h-17.10482c-3.47583,5.23883 -6.96544,10.09067 -10.17611,14.33333h17.59473l8.5944,21.5h-101.00521l8.5944,-21.5h17.59473c-3.21067,-4.24267 -6.70027,-9.0945 -10.17611,-14.33333z"></path></g></g></svg>